# xmcd
#
# Track frame offsets:
#	150
#	3032
#	22422
#	38965
#	59920
#	79967
#	97817
#	121175
#	142105
#	161412
#	180147
#	202830
#	221860
#
# Disc length: 3259 seconds
#
# Revision: 1
# Processed by: cddbd v1.4PL0 Copyright (c) Steve Scherf et al.
# Submitted via: audiograbber 1.80
#
DISCID=ae0cb90d
DTITLE=이장우 - 슈퍼마겟러브송 3집
DYEAR=1900
DGENRE=
TTITLE0=Prelude
TTITLE1=영원한 약속
TTITLE2=있을때 잘해
TTITLE3=Love Song(Duet With 윤손하)
TTITLE4=이별 한후
TTITLE5=지금 이순간을(Remix)
TTITLE6=마지막 변명
TTITLE7=고백(부제:나의 아버지)
TTITLE8=To You(내가 너에게)
TTITLE9=心夜(심야)
TTITLE10=그여자 그남자
TTITLE11=내안의 너
TTITLE12=미련한 사랑
EXTD=
EXTT0=
EXTT1=
EXTT2=
EXTT3=
EXTT4=
EXTT5=
EXTT6=
EXTT7=
EXTT8=
EXTT9=
EXTT10=
EXTT11=
EXTT12=
PLAYORDER=
